<svg xmlns="http://www.w3.org/2000/svg" xmlns:xlink="http://www.w3.org/1999/xlink" width="500" zoomAndPan="magnify" viewBox="0 0 375 374.999991" height="500" preserveAspectRatio="xMidYMid meet" version="1.0"><defs><clipPath id="097dce0838"><path d="M 75.535156 75.535156 L 299.464844 75.535156 L 299.464844 299.464844 L 75.535156 299.464844 Z M 75.535156 75.535156 " clip-rule="nonzero"/></clipPath><clipPath id="5fd688fbab"><path d="M 187.5 75.535156 C 125.664062 75.535156 75.535156 125.664062 75.535156 187.5 C 75.535156 249.335938 125.664062 299.464844 187.5 299.464844 C 249.335938 299.464844 299.464844 249.335938 299.464844 187.5 C 299.464844 125.664062 249.335938 75.535156 187.5 75.535156 " clip-rule="nonzero"/></clipPath><clipPath id="2ffb949e10"><path d="M 152.929688 272.515625 L 166.429688 272.515625 L 166.429688 286.015625 L 152.929688 286.015625 Z M 152.929688 272.515625 " clip-rule="nonzero"/></clipPath><clipPath id="04d8858a8c"><path d="M 159.679688 272.515625 C 155.953125 272.515625 152.929688 275.539062 152.929688 279.265625 C 152.929688 282.996094 155.953125 286.015625 159.679688 286.015625 C 163.410156 286.015625 166.429688 282.996094 166.429688 279.265625 C 166.429688 275.539062 163.410156 272.515625 159.679688 272.515625 " clip-rule="nonzero"/></clipPath><clipPath id="6ec4a2477e"><path d="M 111.941406 117.203125 L 236.632812 117.203125 L 236.632812 185.574219 L 111.941406 185.574219 Z M 111.941406 117.203125 " clip-rule="nonzero"/></clipPath><clipPath id="f50527b24e"><path d="M 202.445312 117.203125 C 221.328125 117.203125 236.632812 132.507812 236.632812 151.390625 C 236.632812 170.269531 221.328125 185.574219 202.445312 185.574219 L 146.125 185.574219 C 127.246094 185.574219 111.941406 170.269531 111.941406 151.390625 C 111.941406 132.507812 127.246094 117.203125 146.125 117.203125 L 202.445312 117.203125 " clip-rule="nonzero"/></clipPath><clipPath id="fbe7936c93"><path d="M 111.941406 117.203125 L 236.441406 117.203125 L 236.441406 185.453125 L 111.941406 185.453125 Z M 111.941406 117.203125 " clip-rule="nonzero"/></clipPath><clipPath id="343f6d5875"><path d="M 202.304688 117.203125 C 221.15625 117.203125 236.4375 132.480469 236.4375 151.328125 C 236.4375 170.175781 221.15625 185.453125 202.304688 185.453125 L 146.074219 185.453125 C 127.222656 185.453125 111.941406 170.175781 111.941406 151.328125 C 111.941406 132.480469 127.222656 117.203125 146.074219 117.203125 L 202.304688 117.203125 " clip-rule="nonzero"/></clipPath><clipPath id="442f4ea3b3"><path d="M 101.480469 120.578125 L 152.929688 120.578125 L 152.929688 187.5 L 101.480469 187.5 Z M 101.480469 120.578125 " clip-rule="nonzero"/></clipPath></defs><g clip-path="url(#097dce0838)"><g clip-path="url(#5fd688fbab)"><path fill="#b9e5dd" d="M 75.535156 75.535156 L 299.464844 75.535156 L 299.464844 299.464844 L 75.535156 299.464844 Z M 75.535156 75.535156 " fill-opacity="1" fill-rule="nonzero"/></g></g><path stroke-linecap="round" transform="matrix(0.75, 0, 0, 0.751992, 152.930606, 177.769704)" fill="none" stroke-linejoin="miter" d="M 8.998776 9.001908 L 8.998776 108.695519 " stroke="#000000" stroke-width="18" stroke-opacity="1" stroke-miterlimit="4"/><g clip-path="url(#2ffb949e10)"><g clip-path="url(#04d8858a8c)"><path fill="#000000" d="M 152.929688 272.515625 L 166.429688 272.515625 L 166.429688 286.015625 L 152.929688 286.015625 Z M 152.929688 272.515625 " fill-opacity="1" fill-rule="nonzero"/><path stroke-linecap="butt" transform="matrix(0.75, 0, 0, 0.75, 152.930606, 272.517141)" fill="none" stroke-linejoin="miter" d="M 8.998776 -0.00202067 C 4.030026 -0.00202067 -0.00122421 4.02923 -0.00122421 8.99798 C -0.00122421 13.971939 4.030026 17.997981 8.998776 17.997981 C 13.972735 17.997981 17.998777 13.971939 17.998777 8.99798 C 17.998777 4.02923 13.972735 -0.00202067 8.998776 -0.00202067 " stroke="#000000" stroke-width="36" stroke-opacity="1" stroke-miterlimit="4"/></g></g><g clip-path="url(#6ec4a2477e)"><g clip-path="url(#f50527b24e)"><path fill="#b9e5dd" d="M 111.941406 117.203125 L 236.632812 117.203125 L 236.632812 185.574219 L 111.941406 185.574219 Z M 111.941406 117.203125 " fill-opacity="1" fill-rule="nonzero"/></g></g><g clip-path="url(#fbe7936c93)"><g clip-path="url(#343f6d5875)"><path stroke-linecap="butt" transform="matrix(0.748872, 0, 0, 0.748714, 111.942288, 117.202706)" fill="none" stroke-linejoin="miter" d="M 120.664657 0.000559755 C 145.837929 0.000559755 166.243615 20.405327 166.243615 45.578684 C 166.243615 70.752042 145.837929 91.156809 120.664657 91.156809 L 45.577782 91.156809 C 20.404509 91.156809 -0.00117684 70.752042 -0.00117684 45.578684 C -0.00117684 20.405327 20.404509 0.000559755 45.577782 0.000559755 L 120.664657 0.000559755 " stroke="#000000" stroke-width="36" stroke-opacity="1" stroke-miterlimit="4"/></g></g><g clip-path="url(#442f4ea3b3)"><path fill="#b9e5dd" d="M 101.480469 120.578125 L 152.929688 120.578125 L 152.929688 187.5 L 101.480469 187.5 Z M 101.480469 120.578125 " fill-opacity="1" fill-rule="nonzero"/></g><path stroke-linecap="round" transform="matrix(-0.750383, 0, 0, -0.75, 244.841369, 130.702695)" fill="none" stroke-linejoin="miter" d="M 8.997437 8.999428 L 143.93371 8.999428 " stroke="#000000" stroke-width="18" stroke-opacity="1" stroke-miterlimit="4"/><path stroke-linecap="round" transform="matrix(-0.750383, 0, 0, -0.75, 261.614723, 159.101356)" fill="none" stroke-linejoin="miter" d="M 9.002532 8.999725 L 143.933599 8.999725 " stroke="#000000" stroke-width="18" stroke-opacity="1" stroke-miterlimit="4"/></svg>