<svg xmlns="http://www.w3.org/2000/svg" xmlns:xlink="http://www.w3.org/1999/xlink" width="500" zoomAndPan="magnify" viewBox="0 0 375 374.999991" height="500" preserveAspectRatio="xMidYMid meet" version="1.0"><defs><clipPath id="cebc930940"><path d="M 75.535156 75.535156 L 299.464844 75.535156 L 299.464844 299.464844 L 75.535156 299.464844 Z M 75.535156 75.535156 " clip-rule="nonzero"/></clipPath><clipPath id="92020776de"><path d="M 187.5 75.535156 C 125.664062 75.535156 75.535156 125.664062 75.535156 187.5 C 75.535156 249.335938 125.664062 299.464844 187.5 299.464844 C 249.335938 299.464844 299.464844 249.335938 299.464844 187.5 C 299.464844 125.664062 249.335938 75.535156 187.5 75.535156 " clip-rule="nonzero"/></clipPath><clipPath id="cfb4b56be6"><path d="M 153.582031 102.585938 L 237.582031 102.585938 L 237.582031 177.585938 L 153.582031 177.585938 Z M 153.582031 102.585938 " clip-rule="nonzero"/></clipPath><clipPath id="f44915a892"><path d="M 153.582031 263.414062 L 162.582031 263.414062 L 162.582031 272.414062 L 153.582031 272.414062 Z M 153.582031 263.414062 " clip-rule="nonzero"/></clipPath><clipPath id="770aeef5f9"><path d="M 158.082031 263.414062 C 155.59375 263.414062 153.582031 265.429688 153.582031 267.914062 C 153.582031 270.398438 155.59375 272.414062 158.082031 272.414062 C 160.566406 272.414062 162.582031 270.398438 162.582031 267.914062 C 162.582031 265.429688 160.566406 263.414062 158.082031 263.414062 " clip-rule="nonzero"/></clipPath></defs><g clip-path="url(#cebc930940)"><g clip-path="url(#92020776de)"><path fill="#b9e5dd" d="M 75.535156 75.535156 L 299.464844 75.535156 L 299.464844 299.464844 L 75.535156 299.464844 Z M 75.535156 75.535156 " fill-opacity="1" fill-rule="nonzero"/></g></g><g clip-path="url(#cfb4b56be6)"><path fill="#000000" d="M 230.582031 133.230469 L 220.933594 133.230469 C 219.554688 126.90625 216.476562 121.261719 212.296875 116.617188 L 230.582031 116.617188 C 234.445312 116.617188 237.582031 113.484375 237.582031 109.621094 C 237.582031 105.761719 234.445312 102.625 230.582031 102.625 L 160.582031 102.625 C 156.714844 102.625 153.582031 105.761719 153.582031 109.621094 C 153.582031 113.484375 156.714844 116.617188 160.582031 116.617188 L 181.582031 116.617188 C 192.339844 116.617188 201.375 123.59375 204.671875 133.230469 L 160.582031 133.230469 C 156.714844 133.230469 153.582031 136.367188 153.582031 140.226562 C 153.582031 144.089844 156.714844 147.222656 160.582031 147.222656 L 205.210938 147.222656 C 202.484375 157.765625 192.984375 165.585938 181.582031 165.585938 L 161.023438 165.585938 C 156.914062 165.585938 153.582031 168.914062 153.582031 173.023438 C 153.582031 175.058594 154.40625 176.890625 155.730469 178.234375 L 155.722656 178.242188 L 155.75 178.269531 C 155.75 178.269531 155.75 178.269531 155.757812 178.277344 L 204.792969 226.65625 L 204.835938 226.636719 C 206.085938 227.796875 207.738281 228.542969 209.582031 228.542969 C 213.445312 228.542969 216.582031 225.410156 216.582031 221.550781 C 216.582031 219.605469 215.78125 217.847656 214.496094 216.582031 L 214.496094 216.574219 L 174.582031 177.828125 C 178.878906 177.828125 183.980469 177.828125 185.082031 177.828125 C 203.28125 177.828125 218.28125 164.578125 221.214844 147.222656 L 230.582031 147.222656 C 234.445312 147.222656 237.582031 144.089844 237.582031 140.226562 C 237.582031 136.367188 234.445312 133.230469 230.582031 133.230469 Z M 230.582031 133.230469 " fill-opacity="1" fill-rule="nonzero"/></g><path stroke-linecap="butt" transform="matrix(0.000000000000000547, 0.751992, -0.75, 0.000000000000000546, 162.577011, 171.911048)" fill="none" stroke-linejoin="miter" d="M -0.00118573 5.998516 L 117.696701 5.998516 " stroke="#000000" stroke-width="12" stroke-opacity="1" stroke-miterlimit="4"/><g clip-path="url(#f44915a892)"><g clip-path="url(#770aeef5f9)"><path fill="#000000" d="M 153.582031 263.414062 L 162.582031 263.414062 L 162.582031 272.414062 L 153.582031 272.414062 Z M 153.582031 263.414062 " fill-opacity="1" fill-rule="nonzero"/></g></g></svg>